<?xml version="1.0" encoding="UTF-8"?><svg id="Layer_2" xmlns="http://www.w3.org/2000/svg" viewBox="0 0 42.2 32.29"><defs><style>.cls-1{fill:#1f2147;}.cls-2{fill:#40a2db;}</style></defs><g id="Delete_When_Done"><path class="cls-1" d="M10.89,23.35c-.19-.31-.39-.61-.64-.91h0c-.65-.9-1.02-1.45-1.67-1.96l-1.53,4.73-2.85-8.82H0l4.97,14.61h4.21l2.28-6.69c-.18-.32-.37-.64-.57-.95Z"/><path class="cls-2" d="M42.2,1.1c-.53,.44-1.05,.85-1.55,1.27-1.52,1.27-2.92,2.67-4.29,4.09-1.39,1.44-2.71,2.95-3.96,4.51-.95,1.18-1.89,2.37-2.82,3.57-.83,1.08-1.66,2.15-2.42,3.27-1.1,1.61-2.17,3.25-3.22,4.89-.58,.9-1.11,1.83-1.63,2.77-.53,.97-1.03,1.96-1.52,2.95-.15,.3-.36,.52-.63,.71-1.23,.85-2.44,1.71-3.66,2.57-.24,.17-.46,.37-.72,.58-.06-.1-.12-.18-.15-.27h0c-.63-1.96-1.46-3.83-2.28-5.71-.28-.64-.58-1.28-.9-1.9v-.02c-.31-.57-.63-1.13-.97-1.68-.19-.31-.39-.61-.64-.91h0c-.74-1.03-1.13-1.6-1.97-2.17,.34-1.05,.81-1.61,1.55-2.05,.64-.38,1.34-.57,2.07-.69,.57-.1,1.1,.19,1.55,.54,.62,.48,1.06,1.11,1.48,1.76,.78,1.21,1.37,2.5,1.94,3.82,.12,.27,.25,.53,.41,.86,.11-.15,.2-.25,.27-.36,.6-.93,1.16-1.88,1.79-2.8,.72-1.06,1.49-2.09,2.25-3.11,1.03-1.39,2.13-2.72,3.29-4.01,.78-.87,1.57-1.73,2.38-2.57,.78-.82,1.56-1.64,2.38-2.42,.95-.91,1.94-1.79,2.93-2.66,1.8-1.59,3.7-3.05,5.71-4.38,.77-.51,1.56-.97,2.34-1.46,.06-.04,.13-.06,.22-.09,.26,.37,.52,.73,.78,1.1Z"/></g></svg>